<svg width="274" height="70" viewBox="0 0 274 70" fill="none" xmlns="http://www.w3.org/2000/svg">
<path d="M238.993 67.9994C242.307 67.9994 244.994 65.2918 244.994 61.9518C244.994 58.6119 242.307 55.9043 238.993 55.9043C235.678 55.9043 232.991 58.6119 232.991 61.9518C232.991 65.2918 235.678 67.9994 238.993 67.9994Z" fill="#FF7300"/>
<path d="M255.708 67.9994C259.022 67.9994 261.709 65.2918 261.709 61.9518C261.709 58.6119 259.022 55.9043 255.708 55.9043C252.393 55.9043 249.706 58.6119 249.706 61.9518C249.706 65.2918 252.393 67.9994 255.708 67.9994Z" fill="#FF7300"/>
<path d="M269 14.916H239.17C230.457 14.916 224.011 23.069 225.967 31.6252L230.768 52.7692H243.572L237.214 25.712H269V14.9608V14.916Z" fill="#7010DF"/>
<path d="M257.353 3H262.109V52.7243H249.262V11.153C249.262 6.62853 252.907 3 257.353 3Z" fill="#7010DF"/>
<path d="M24.5385 52.7692C20.5375 52.7692 16.981 51.9629 13.9136 50.3502C10.8462 48.7375 8.40111 46.4977 6.62288 43.6755C4.84466 40.8085 4 37.5383 4 33.8202C4 30.1021 4.84466 26.9215 6.57843 24.0993C8.3122 21.2771 10.6239 19.0373 13.6024 17.3798C16.5809 15.7224 19.9151 14.916 23.6049 14.916C27.2947 14.916 30.4511 15.6776 33.2518 17.2454C36.0525 18.8133 38.2753 20.9636 39.8757 23.6962C41.4761 26.4288 42.2763 29.5645 42.2763 33.0587C42.2763 33.8202 42.2763 34.537 42.1874 35.2985C42.0985 36.0601 41.9651 36.956 41.6984 37.9415L10.046 38.0759V29.7885L36.6304 29.5645L30.8957 33.1931C30.8512 31.1772 30.54 29.5197 30.0065 28.2206C29.4731 26.9215 28.6729 25.936 27.6504 25.2193C26.6279 24.5473 25.3387 24.1889 23.7828 24.1889C22.2268 24.1889 20.7598 24.5921 19.6039 25.3536C18.4481 26.16 17.5145 27.2351 16.8921 28.6686C16.2698 30.1021 15.9586 31.8044 15.9586 33.865C15.9586 35.9257 16.3142 37.7175 16.981 39.151C17.6479 40.5845 18.6259 41.7044 19.9151 42.4212C21.2043 43.1379 22.7603 43.5411 24.6274 43.5411C26.4056 43.5411 27.9616 43.2275 29.2953 42.6452C30.6289 42.0628 31.8292 41.1221 32.9406 39.9126L39.609 46.6321C37.8307 48.6479 35.6969 50.171 33.2073 51.2013C30.6734 52.2317 27.8282 52.7692 24.6719 52.7692H24.5385Z" fill="#FF7300"/>
<path d="M102.291 52.7686C100.113 52.7686 97.9789 52.455 95.845 51.8727C93.7556 51.2903 91.7551 50.484 89.9769 49.4984C88.1542 48.5129 86.6427 47.3482 85.3535 46.0043L92.2441 38.8816C93.4 40.0911 94.8226 41.0319 96.423 41.7486C98.0678 42.4206 99.7571 42.7789 101.624 42.7789C102.691 42.7789 103.491 42.6445 104.069 42.331C104.647 42.0174 104.914 41.6142 104.914 41.0767C104.914 40.3151 104.514 39.688 103.714 39.2848C102.913 38.8816 101.891 38.5232 100.602 38.1649C99.3126 37.8513 97.9789 37.4481 96.5563 37.0002C95.1338 36.5522 93.8001 35.925 92.4664 35.1187C91.1772 34.3572 90.1103 33.2372 89.3101 31.8037C88.5099 30.3702 88.1098 28.5784 88.1098 26.3833C88.1098 24.1883 88.7321 22.0829 89.9769 20.3358C91.2217 18.5887 92.9554 17.2448 95.1782 16.2145C97.401 15.1842 100.024 14.6914 103.047 14.6914C106.07 14.6914 109.004 15.229 111.76 16.2593C114.516 17.2896 116.739 18.9023 118.429 20.9629L111.449 28.0856C110.293 26.7865 109.004 25.8458 107.581 25.353C106.159 24.8603 104.914 24.5915 103.714 24.5915C102.513 24.5915 101.802 24.7707 101.313 25.0842C100.824 25.3978 100.602 25.8458 100.602 26.3833C100.602 27.0105 101.002 27.5481 101.802 27.9064C102.602 28.3096 103.625 28.668 104.914 28.9816C106.203 29.2951 107.537 29.6983 108.915 30.1911C110.293 30.6838 111.627 31.3558 112.916 32.2069C114.205 33.0581 115.228 34.178 116.028 35.6115C116.828 37.045 117.228 38.8368 117.228 41.1215C117.228 44.7052 115.85 47.4826 113.138 49.588C110.426 51.6935 106.781 52.679 102.247 52.679L102.291 52.7686Z" fill="#FF7300"/>
<path d="M169.952 52.7693C166.129 52.7693 162.706 51.963 159.639 50.3503C156.571 48.7376 154.171 46.4978 152.392 43.6308C150.614 40.7638 149.77 37.5385 149.77 33.9547C149.77 30.371 150.659 27.056 152.437 24.1891C154.215 21.3221 156.66 19.0822 159.683 17.4248C162.751 15.7673 166.218 14.9609 170.086 14.9609C172.886 14.9609 175.42 15.4089 177.732 16.3496C180.044 17.2904 182.133 18.6791 184.045 20.5605L175.954 28.7135C175.198 27.952 174.353 27.4144 173.42 27.056C172.442 26.6977 171.331 26.5185 170.086 26.5185C168.708 26.5185 167.463 26.8321 166.396 27.4592C165.329 28.0864 164.395 28.9375 163.773 30.0126C163.151 31.0877 162.795 32.3869 162.795 33.9099C162.795 35.433 163.106 36.6873 163.773 37.8072C164.44 38.9272 165.329 39.7783 166.396 40.4503C167.463 41.1222 168.752 41.391 170.086 41.391C171.419 41.391 172.62 41.167 173.598 40.719C174.576 40.2711 175.42 39.6439 176.176 38.7928L184.312 46.9458C182.311 48.9168 180.133 50.3951 177.821 51.3806C175.509 52.3662 172.886 52.8589 169.952 52.8589V52.7693Z" fill="#7010DF"/>
<path d="M201.205 52.7244C197.871 52.7244 194.893 51.9181 192.27 50.2606C189.647 48.6031 187.646 46.4081 186.135 43.5411C184.668 40.6741 183.912 37.4487 183.912 33.865C183.912 30.2813 184.668 26.9215 186.135 24.0545C187.602 21.1876 189.647 18.9477 192.27 17.335C194.893 15.7224 197.827 14.916 201.205 14.916C203.473 14.916 205.518 15.3192 207.385 16.1255C209.252 16.9319 210.763 18.0966 212.008 19.5749C213.208 21.0532 213.92 22.7554 214.186 24.6369V42.9139C213.92 44.8402 213.208 46.5425 212.008 48.0208C210.808 49.4991 209.252 50.619 207.385 51.4701C205.518 52.3213 203.473 52.7244 201.205 52.7244ZM203.962 41.2565C206.095 41.2565 207.829 40.5397 209.163 39.151C210.497 37.7623 211.119 35.9257 211.119 33.7306C211.119 32.2971 210.808 30.998 210.23 29.8781C209.652 28.7582 208.807 27.9071 207.74 27.2351C206.673 26.5632 205.429 26.2496 204.051 26.2496C202.672 26.2496 201.428 26.5632 200.361 27.2351C199.294 27.9071 198.449 28.7582 197.827 29.9229C197.204 31.0876 196.893 32.3419 196.893 33.7306C196.893 35.1193 197.204 36.4632 197.782 37.6279C198.36 38.7479 199.205 39.6438 200.316 40.3157C201.428 40.9877 202.628 41.3013 203.962 41.3013V41.2565ZM210.719 52.7244V42.3764L212.586 33.3275L210.719 24.4129V14.916H223.522V52.7244H210.719Z" fill="#7010DF"/>
<path d="M61.1702 52.7244C57.836 52.7244 54.8575 51.9181 52.2346 50.2606C49.6117 48.6031 47.6112 46.4081 46.0997 43.5411C44.6327 40.6741 43.877 37.4487 43.877 33.865C43.877 30.2813 44.6327 26.9215 46.0997 24.0545C47.5668 21.1876 49.6117 18.9477 52.2346 17.335C54.8575 15.7224 57.7916 14.916 61.1702 14.916C63.4374 14.916 65.4824 15.3192 67.3495 16.1255C69.2167 16.9319 70.7282 18.0966 71.9729 19.5749C73.1732 21.0532 73.8845 22.7554 74.1512 24.6369V42.9139C73.8845 44.8402 73.1732 46.5425 71.9729 48.0208C70.7726 49.4991 69.2167 50.619 67.3495 51.4701C65.4824 52.3213 63.4374 52.7244 61.1702 52.7244ZM63.9264 41.2565C66.0603 41.2565 67.7941 40.5397 69.1277 39.151C70.4614 37.7623 71.0838 35.9257 71.0838 33.7306C71.0838 32.2971 70.7726 30.998 70.1947 29.8781C69.6168 28.7582 68.7721 27.9071 67.7052 27.2351C66.6382 26.5632 65.3935 26.2496 64.0154 26.2496C62.6372 26.2496 61.3925 26.5632 60.3255 27.2351C59.2586 27.9071 58.4139 28.7582 57.7916 29.9229C57.1692 31.0876 56.858 32.3419 56.858 33.7306C56.858 35.1193 57.1692 36.4632 57.7471 37.6279C58.325 38.7479 59.1697 39.6438 60.2811 40.3157C61.3925 40.9877 62.5928 41.3013 63.9264 41.3013V41.2565ZM70.6837 52.7244V42.3764L72.5508 33.3275L70.6837 24.4129V14.916H83.4869V52.7244H70.6837Z" fill="#FF7300"/>
<path d="M153.549 14.916L133.944 67.0594H121.363L140.924 14.916H153.549Z" fill="#FF7300"/>
<path d="M124.609 52.7692L118.385 14.916H131.01L137.189 52.7692H124.609Z" fill="#FF7300"/>
</svg>
