<svg width="160" height="41" viewBox="0 0 160 41" fill="none" xmlns="http://www.w3.org/2000/svg">
<path d="M139.557 39.8284C141.493 39.8284 143.062 38.2425 143.062 36.2863C143.062 34.33 141.493 32.7441 139.557 32.7441C137.622 32.7441 136.053 34.33 136.053 36.2863C136.053 38.2425 137.622 39.8284 139.557 39.8284Z" fill="white"/>
<path d="M149.319 39.8284C151.254 39.8284 152.824 38.2425 152.824 36.2863C152.824 34.33 151.254 32.7441 149.319 32.7441C147.383 32.7441 145.814 34.33 145.814 36.2863C145.814 38.2425 147.383 39.8284 149.319 39.8284Z" fill="white"/>
<path d="M157.08 8.73633H139.662C134.573 8.73633 130.809 13.5117 131.952 18.5231L134.755 30.9075H142.232L138.519 15.0597H157.08V8.76257V8.73633Z" fill="white"/>
<path d="M150.279 1.75781H153.057V30.8821H145.555V6.53314C145.555 3.8831 147.683 1.75781 150.279 1.75781Z" fill="white"/>
<path d="M14.3292 30.9075C11.9929 30.9075 9.91611 30.4352 8.1249 29.4906C6.3337 28.5461 4.90593 27.2342 3.86755 25.5812C2.82917 23.9019 2.33594 21.9866 2.33594 19.8088C2.33594 17.631 2.82917 15.7681 3.84159 14.1151C4.85401 12.4621 6.2039 11.1502 7.94319 10.1794C9.68247 9.20861 11.6294 8.73633 13.7841 8.73633C15.9387 8.73633 17.7818 9.18238 19.4173 10.1007C21.0527 11.019 22.3507 12.2785 23.2852 13.879C24.2198 15.4795 24.6871 17.3162 24.6871 19.3627C24.6871 19.8088 24.6871 20.2286 24.6351 20.6746C24.5832 21.1207 24.5053 21.6455 24.3496 22.2227L5.86643 22.3014V17.4474L21.3902 17.3162L18.0414 19.4415C18.0155 18.2607 17.8338 17.2899 17.5222 16.529C17.2107 15.7681 16.7435 15.1909 16.1464 14.7711C15.5493 14.3775 14.7965 14.1676 13.8879 14.1676C12.9793 14.1676 12.1227 14.4037 11.4477 14.8498C10.7728 15.3221 10.2276 15.9518 9.86419 16.7914C9.50076 17.631 9.31904 18.6281 9.31904 19.835C9.31904 21.042 9.52672 22.0915 9.91611 22.9311C10.3055 23.7707 10.8766 24.4267 11.6294 24.8465C12.3823 25.2663 13.2908 25.5025 14.3811 25.5025C15.4195 25.5025 16.3281 25.3188 17.1069 24.9777C17.8857 24.6366 18.5866 24.0856 19.2356 23.3772L23.1295 27.3129C22.0911 28.4936 20.8451 29.3857 19.3913 29.9892C17.9116 30.5926 16.2502 30.9075 14.4071 30.9075H14.3292Z" fill="white"/>
<path d="M59.7324 30.9078C58.4604 30.9078 57.2143 30.7242 55.9682 30.3831C54.7481 30.042 53.58 29.5697 52.5416 28.9924C51.4772 28.4152 50.5946 27.733 49.8418 26.9459L53.8655 22.774C54.5405 23.4825 55.3712 24.0334 56.3057 24.4533C57.2662 24.8468 58.2527 25.0567 59.343 25.0567C59.966 25.0567 60.4333 24.978 60.7707 24.7944C61.1082 24.6107 61.264 24.3745 61.264 24.0597C61.264 23.6136 61.0303 23.2463 60.5631 23.0102C60.0958 22.774 59.4987 22.5641 58.7459 22.3542C57.9931 22.1705 57.2143 21.9344 56.3836 21.672C55.5529 21.4096 54.7741 21.0423 53.9953 20.57C53.2425 20.124 52.6195 19.468 52.1522 18.6284C51.6849 17.7888 51.4513 16.7393 51.4513 15.4536C51.4513 14.1679 51.8147 12.9347 52.5416 11.9115C53.2685 10.8882 54.2809 10.101 55.5788 9.49756C56.8768 8.89409 58.4084 8.60547 60.1737 8.60547C61.9389 8.60547 63.6522 8.92033 65.2617 9.5238C66.8712 10.1273 68.1692 11.0718 69.1557 12.2788L65.08 16.4506C64.4051 15.6897 63.6522 15.1387 62.8215 14.8501C61.9908 14.5615 61.264 14.4041 60.5631 14.4041C59.8622 14.4041 59.4468 14.509 59.1613 14.6927C58.8757 14.8764 58.7459 15.1387 58.7459 15.4536C58.7459 15.8209 58.9795 16.1358 59.4468 16.3457C59.9141 16.5818 60.5112 16.7917 61.264 16.9754C62.0168 17.1591 62.7956 17.3952 63.6003 17.6838C64.4051 17.9725 65.1839 18.366 65.9367 18.8646C66.6895 19.3631 67.2866 20.019 67.7539 20.8586C68.2211 21.6983 68.4548 22.7478 68.4548 24.0859C68.4548 26.185 67.65 27.8117 66.0665 29.0449C64.483 30.2781 62.3543 30.8553 59.7064 30.8553L59.7324 30.9078Z" fill="white"/>
<path d="M99.2426 30.9086C97.0101 30.9086 95.0112 30.4363 93.22 29.4917C91.4288 28.5472 90.027 27.2353 88.9886 25.556C87.9503 23.8768 87.457 21.9877 87.457 19.8886C87.457 17.7896 87.9762 15.8479 89.0146 14.1687C90.053 12.4895 91.4808 11.1776 93.246 10.2068C95.0372 9.23596 97.062 8.76367 99.3205 8.76367C100.956 8.76367 102.436 9.02605 103.786 9.57705C105.135 10.1281 106.356 10.9414 107.472 12.0434L102.747 16.8188C102.306 16.3727 101.813 16.0579 101.267 15.8479C100.696 15.638 100.047 15.5331 99.3205 15.5331C98.5158 15.5331 97.7889 15.7168 97.1659 16.0841C96.5428 16.4514 95.9977 16.9499 95.6343 17.5797C95.2708 18.2094 95.0632 18.9703 95.0632 19.8624C95.0632 20.7545 95.2449 21.4891 95.6343 22.1451C96.0237 22.801 96.5428 23.2996 97.1659 23.6931C97.7889 24.0867 98.5417 24.2441 99.3205 24.2441C100.099 24.2441 100.8 24.1129 101.371 23.8506C101.942 23.5882 102.436 23.2208 102.877 22.7223L107.628 27.4976C106.459 28.6521 105.187 29.518 103.837 30.0952C102.488 30.6725 100.956 30.9611 99.2426 30.9611V30.9086Z" fill="white"/>
<path d="M117.493 30.8813C115.546 30.8813 113.807 30.409 112.275 29.4382C110.743 28.4674 109.575 27.1817 108.693 25.5024C107.836 23.8232 107.395 21.9341 107.395 19.835C107.395 17.736 107.836 15.7681 108.693 14.0889C109.549 12.4097 110.743 11.0978 112.275 10.1532C113.807 9.20861 115.52 8.73633 117.493 8.73633C118.817 8.73633 120.011 8.97247 121.101 9.44476C122.191 9.91704 123.074 10.5992 123.801 11.4651C124.502 12.3309 124.917 13.328 125.073 14.43V25.1351C124.917 26.2634 124.502 27.2604 123.801 28.1263C123.1 28.9921 122.191 29.6481 121.101 30.1466C120.011 30.6451 118.817 30.8813 117.493 30.8813ZM119.102 24.1643C120.348 24.1643 121.361 23.7445 122.14 22.9311C122.918 22.1177 123.282 21.042 123.282 19.7563C123.282 18.9167 123.1 18.1558 122.763 17.4998C122.425 16.8439 121.932 16.3454 121.309 15.9518C120.686 15.5582 119.959 15.3746 119.154 15.3746C118.349 15.3746 117.623 15.5582 117 15.9518C116.377 16.3454 115.883 16.8439 115.52 17.5261C115.156 18.2083 114.975 18.9429 114.975 19.7563C114.975 20.5697 115.156 21.3568 115.494 22.039C115.831 22.695 116.325 23.2197 116.974 23.6133C117.623 24.0069 118.323 24.1905 119.102 24.1905V24.1643ZM123.048 30.8813V24.8203L124.138 19.5202L123.048 14.2988V8.73633H130.524V30.8813H123.048Z" fill="white"/>
<path d="M35.7193 30.8813C33.7724 30.8813 32.0331 30.409 30.5015 29.4382C28.9699 28.4674 27.8017 27.1817 26.9191 25.5024C26.0624 23.8232 25.6211 21.9341 25.6211 19.835C25.6211 17.736 26.0624 15.7681 26.9191 14.0889C27.7757 12.4097 28.9699 11.0978 30.5015 10.1532C32.0331 9.20861 33.7464 8.73633 35.7193 8.73633C37.0433 8.73633 38.2374 8.97247 39.3277 9.44476C40.418 9.91704 41.3006 10.5992 42.0275 11.4651C42.7284 12.3309 43.1437 13.328 43.2995 14.43V25.1351C43.1437 26.2634 42.7284 27.2604 42.0275 28.1263C41.3266 28.9921 40.418 29.6481 39.3277 30.1466C38.2374 30.6451 37.0433 30.8813 35.7193 30.8813ZM37.3288 24.1643C38.5749 24.1643 39.5873 23.7445 40.3661 22.9311C41.1449 22.1177 41.5083 21.042 41.5083 19.7563C41.5083 18.9167 41.3266 18.1558 40.9891 17.4998C40.6516 16.8439 40.1584 16.3454 39.5354 15.9518C38.9124 15.5582 38.1855 15.3746 37.3807 15.3746C36.576 15.3746 35.8491 15.5582 35.2261 15.9518C34.6031 16.3454 34.1098 16.8439 33.7464 17.5261C33.383 18.2083 33.2013 18.9429 33.2013 19.7563C33.2013 20.5697 33.383 21.3568 33.7205 22.039C34.0579 22.695 34.5512 23.2197 35.2001 23.6133C35.8491 24.0069 36.55 24.1905 37.3288 24.1905V24.1643ZM41.2747 30.8813V24.8203L42.365 19.5202L41.2747 14.2988V8.73633H48.751V30.8813H41.2747Z" fill="white"/>
<path d="M89.6638 8.73633L78.2157 39.2774H70.8691L82.2913 8.73633H89.6638Z" fill="white"/>
<path d="M72.7632 30.9075L69.1289 8.73633H76.5014L80.1098 30.9075H72.7632Z" fill="white"/>
</svg>
